<svg width="1099" height="156" viewBox="0 0 1099 156" fill="none" xmlns="http://www.w3.org/2000/svg">
<path fill-rule="evenodd" clip-rule="evenodd" d="M858.34 18.57V76.94V91.72H860.05C878.97 91.72 893.22 73.43 893.22 55.14C893.22 36.85 878.95 18.57 860.05 18.57H858.34ZM227.97 17.88C248.18 17.88 257.53 49.18 257.53 77.95C257.53 106.72 248.18 138.02 227.97 138.02C207.76 138.02 198.41 106.72 198.41 77.95C198.41 49.18 207.76 17.88 227.97 17.88ZM227.97 0C272.88 0 309.51 31.3 309.51 77.95C309.51 124.6 272.88 155.9 227.97 155.9C183.06 155.9 146.42 124.6 146.42 77.95C146.42 31.3 183.06 0 227.97 0ZM402.23 128.18V128.14V127.98C402.24 127.52 402.24 127.06 402.24 126.59V126.47V125.87V125.86L402.07 101.04C398.58 101.04 394.75 101.13 390.8 101.21L387.45 101.27C378.72 101.41 367.23 101.36 359.87 100.04C335.92 96.03 318.59 75.1 318.59 50.35L318.63 28.71C318.63 26.9 318.56 25.16 318.42 23.47L318.41 23.39L318.4 23.16L318.39 22.98L318.38 22.86L318.36 22.58V22.55L318.33 22.25V22.17L318.31 21.95L318.29 21.77L318.28 21.64L318.26 21.37V21.34L318.23 21.04L318.22 20.97L318.2 20.74L318.18 20.57L318.17 20.44L318.14 20.17L318.13 20.14L318.1 19.84L318.09 19.77L318.06 19.54L318.05 19.37L318.03 19.24L317.99 18.97V18.94L317.95 18.64L317.94 18.58L317.91 18.34L317.89 18.18L317.86 18.04L317.83 17.78L317.82 17.74L317.77 17.44V17.39L317.73 17.15L317.7 16.99L317.68 16.85L317.63 16.6V16.55L317.57 16.26V16.21L317.52 15.96L317.49 15.81L317.46 15.66L317.42 15.42L317.4 15.37L317.35 15.07L317.34 15.02L317.28 14.77L317.25 14.63L317.22 14.48L317.17 14.24L317.15 14.18L317.09 13.88L317.08 13.85L317.02 13.59L316.99 13.45L316.95 13.29L316.89 13.06L316.88 13L316.8 12.7L316.79 12.67L316.72 12.41L316.69 12.27L316.64 12.11L316.58 11.88L316.56 11.81L316.48 11.52L316.47 11.49L316.39 11.22L316.36 11.1L316.31 10.93L316.24 10.7L316.22 10.63L316.13 10.33L316.12 10.31L316.03 10.04L315.99 9.92L315.94 9.74L315.87 9.52L315.84 9.44L315.74 9.15L315.73 9.13L315.64 8.85L315.59 8.73L315.53 8.55L315.45 8.34L315.42 8.26L315.31 7.96V7.94L315.2 7.66L315.16 7.55L315.09 7.36L315.01 7.15L314.97 7.06L314.85 6.76V6.75L314.73 6.47L314.68 6.36L314.6 6.17L314.52 5.96L314.48 5.87L314.35 5.57V5.56L314.22 5.27L314.17 5.16L314.08 4.96L313.99 4.76L313.95 4.66L313.8 4.36H369.75L369.63 4.62L369.56 4.76L369.51 4.88L369.39 5.14L369.38 5.16L369.28 5.4L369.21 5.56L369.16 5.66L369.05 5.92L369.04 5.96L368.94 6.18L368.87 6.36L368.83 6.44L368.73 6.7L368.71 6.75L368.63 6.96L368.52 7.22L368.42 7.47L368.4 7.55L368.33 7.73L368.25 7.94L368.23 7.99L368.13 8.25L368.1 8.34L368.04 8.5L367.96 8.73L367.95 8.76L367.86 9.02L367.82 9.13L367.77 9.28L367.69 9.52V9.53L367.6 9.79L367.56 9.92L367.52 10.04L367.44 10.3L367.43 10.31L367.36 10.56L367.31 10.7L367.28 10.81L367.2 11.07V11.1L367.13 11.32L367.08 11.49L367.06 11.58L366.98 11.84L366.97 11.88L366.92 12.09L366.85 12.35L366.78 12.6L366.76 12.67L366.71 12.86L366.66 13.06L366.65 13.11L366.59 13.37L366.57 13.45L366.53 13.63L366.48 13.85L366.47 13.88L366.41 14.14L366.35 14.39L366.3 14.63V14.65L366.24 14.91L366.22 15.02L366.19 15.16C366.09 15.64 366 16.12 365.92 16.6L365.9 16.7L365.86 16.96L365.78 17.47L365.73 17.73V17.78L365.7 17.99L365.67 18.18L365.66 18.24L365.59 18.76L365.56 18.97L365.55 19.02L365.43 20.06L365.42 20.17L365.4 20.32L365.37 20.57V20.58L365.35 20.84L365.34 20.86C365.06 23.35 364.93 25.95 364.93 28.71L364.96 50.34C364.96 68.63 379.22 85.72 398.13 85.72H402.15L402.24 70.53V31.47V28.71C402.24 23.9 401.74 19.59 400.84 15.48C399.74 10.38 397.93 8.97 395.53 4.36C416.97 4.36 436.11 4.36 457.65 4.36C455.15 8.97 453.45 10.38 452.25 15.48C451.34 19.59 450.94 23.9 450.94 28.71V125.87V126.29V126.59C450.94 127.41 450.95 128.22 450.98 129.02V129.23H450.99C451.19 136.98 452.24 144.05 455.74 151.54H397.45C401.1 143.72 402.08 136.34 402.23 128.18ZM53.5 66.67H55.21C74.13 66.67 88.38 84.35 88.38 102.04C88.38 119.73 74.11 137.42 55.21 137.42H53.5V66.67ZM130.79 4.36L120.64 35.34C110.31 31.03 102.59 30.02 91.28 30.02H53.5V52.46H84.25C87.75 52.46 91.96 52.86 95.87 53.56C119.82 57.47 137.15 77.3 137.15 102.05C137.15 126.79 119.82 146.53 95.87 150.54C91.96 151.24 87.75 151.54 84.25 151.54H0C3 145.12 4.2 139 4.61 132.5C4.74 130.79 4.79 129.03 4.79 127.19V126.29V125.87V30.03V29.6V29.31C4.79 28.48 4.78 27.68 4.76 26.88L4.75 26.67C4.54 18.92 3.49 11.85 0 4.36H130.79ZM1002.96 22.67C1002.8 24.6 1002.72 26.61 1002.72 28.71V29.6V30.03V85.1V86.4L1052.39 4.36H1098.28C1095.39 10.54 1094.17 16.44 1093.72 22.67C1093.56 24.6 1093.48 26.61 1093.48 28.71V29.6V30.03V125.87V126.29V126.59C1093.48 127.41 1093.49 128.22 1093.52 129.02V129.23C1093.73 136.98 1094.78 144.05 1098.28 151.54H1039.99C1043.25 144.55 1044.38 137.92 1044.69 130.77C1044.75 129.6 1044.78 128.41 1044.78 127.19V126.29V125.87V70.8V69.5L995.1 151.54H949.12C952.65 143.98 953.69 136.84 953.88 129.02L953.89 128.82V128.8C953.91 128.07 953.92 127.34 953.92 126.59V126.51V125.87V30.03V29.39V28.71C953.92 26.66 953.85 24.71 953.69 22.82C953.25 16.54 952.03 10.59 949.12 4.36L1007.47 4.46C1004.62 10.6 1003.41 16.47 1002.96 22.67ZM479.37 128.4V128.36L479.38 128.14V127.98C479.39 127.52 479.4 127.06 479.4 126.59V126.29V125.87V30.03V29.6V28.71C479.4 27.49 479.36 26.3 479.3 25.13C479 17.98 477.86 11.35 474.6 4.36H532.92C530.35 9.87 529.1 15.16 528.53 20.66C528.23 23.21 528.09 25.87 528.09 28.71V66.86L582.06 4.36H624.69C617.55 9.55 611.72 14.64 607.28 19.91L561.88 73.4L612.39 135.35C616.54 140.77 623.69 147.95 627.29 151.54H569.97L528.09 97.22V126.59C528.09 128.35 528.15 130.04 528.26 131.67C528.62 138.48 529.79 144.84 532.92 151.54H474.6C478.22 143.78 479.22 136.47 479.37 128.4ZM721.2 83.45L705.04 32.93L689.49 83.45H721.2ZM676 127.29C674.22 134.74 671.49 143.94 673 151.54H630.99C632.99 149.54 635 146.73 637 143.22C640.71 137.11 643.12 132.7 645.72 126.09L678.88 28.31C681.48 18.73 682.09 13.91 681.98 4.36H740.4L782.19 126.19C783.89 130.79 785.3 134.9 787.6 139.31C790.41 144.82 791.32 146.83 795.12 151.54C773.68 151.54 756.94 151.54 735.49 151.54C736.2 146.83 736.5 145.02 736 140.11C735.59 136.1 734.6 131.8 733.09 127.09L727.34 105.96H682.56L676 127.29ZM809.6 129.23V129.02C809.63 128.22 809.64 127.41 809.64 126.59V126.29V125.87V78.7V30.03V29.39V28.71C809.64 26.66 809.57 24.71 809.41 22.82C808.97 16.53 807.76 10.59 804.85 4.36H855.94H864.12H886.69C890.2 4.36 894.41 4.76 898.31 5.46C922.26 9.37 939.59 30.41 939.59 55.15C939.59 79.89 922.26 100.83 898.31 104.84C894.41 105.54 890.2 105.84 886.69 105.84H858.34V126.59C858.34 127.41 858.35 128.22 858.37 129.02L858.38 129.23C858.59 136.98 859.64 144.05 863.14 151.54H804.84C808.34 144.05 809.39 136.98 809.6 129.23Z" fill="#A58250"/>
</svg>
